Genre:Drama | Horror | Mystery
Language:English
IMDb:http://www.imdb.com/title/tt1545315/
Source:DVD


General
Complete name :Needle.2010.DvDRip.XviD.Ac3.Feel-Free
Format : AVI
Format/Info : Audio Video Interleave
File size : 919 MiB
Duration : 1h 29mn
Overall bit rate : 1 436 Kbps
Video #0
Codec ID : XVID
Codec ID/Hint : XviD
Duration : 1h 29mn
Bit rate : 980 Kbps
Width : 720 pixels
Height : 304 pixels
Display aspect ratio : 2.35:1
Frame rate : 23.976 fps
Resolution : 24 bits
Colorimetry : 4:2:0
Scan type : Progressive
Bits/(Pixel*Frame) : 0.187
Stream size : 627 MiB (68%)
Writing library : XviD 1.2.1 (UTC 2008-12-04)
Audio #1
ID : 1
Format : AC-3
Format/Info : Audio Coding 3
Codec ID : 2000
Duration : 1h 29mn
Bit rate mode : Constant
Bit rate : 448 Kbps
Channel(s) : 6 channels
Channel positions : Front: L C R, Surround: L R, LFE
Sampling rate : 48.0 KHz
Stream size : 286 MiB (31%)
Alignment : Split accross interleaves
Interleave, duration : 42 ms (1.00 video frame)
Interleave, preload duration : 500 ms

Plot:
A killer uses an 18th century machine with supernatural powers to terrorize students at Saint Mary's College.
